<mxfile host="65bd71144e">
    <diagram id="P8f-gx_tKOFk7PmAgaBC" name="Page-1">
        <mxGraphModel dx="1367" dy="515" grid="1" gridSize="10" guides="1" tooltips="1" connect="1" arrows="1" fold="1" page="1" pageScale="1" pageWidth="850" pageHeight="1100" math="0" shadow="0">
            <root>
                <mxCell id="0"/>
                <mxCell id="1" parent="0"/>
                <mxCell id="2" value="7 2 5 4 1 6 0 3" style="rounded=1;whiteSpace=wrap;html=1;" vertex="1" parent="1">
                    <mxGeometry x="90" y="80" width="120" height="60" as="geometry"/>
                </mxCell>
                <mxCell id="6" value="7 2 5 4" style="rounded=0;whiteSpace=wrap;html=1;" vertex="1" parent="1">
                    <mxGeometry x="-20" y="180" width="90" height="60" as="geometry"/>
                </mxCell>
                <mxCell id="7" value="1 6 0 3" style="rounded=0;whiteSpace=wrap;html=1;" vertex="1" parent="1">
                    <mxGeometry x="230" y="180" width="90" height="60" as="geometry"/>
                </mxCell>
                <mxCell id="8" value="0 3" style="rounded=0;whiteSpace=wrap;html=1;" vertex="1" parent="1">
                    <mxGeometry x="290" y="290" width="90" height="60" as="geometry"/>
                </mxCell>
                <mxCell id="9" value="1 6" style="rounded=0;whiteSpace=wrap;html=1;" vertex="1" parent="1">
                    <mxGeometry x="180" y="290" width="90" height="60" as="geometry"/>
                </mxCell>
                <mxCell id="10" value="5 4" style="rounded=0;whiteSpace=wrap;html=1;" vertex="1" parent="1">
                    <mxGeometry x="50" y="290" width="90" height="60" as="geometry"/>
                </mxCell>
                <mxCell id="11" value="" style="rounded=0;whiteSpace=wrap;html=1;" vertex="1" parent="1">
                    <mxGeometry x="-70" y="290" width="90" height="60" as="geometry"/>
                </mxCell>
            </root>
        </mxGraphModel>
    </diagram>
</mxfile>